<?xml version="1.0" encoding="utf-8"?>
<!-- Generator: Adobe Illustrator 18.1.1, SVG Export Plug-In . SVG Version: 6.00 Build 0)  -->
<svg version="1.1" id="Layer_1" xmlns="http://www.w3.org/2000/svg" xmlns:xlink="http://www.w3.org/1999/xlink" x="0px" y="0px"
	 viewBox="0 0 4149.3 890" enable-background="new 0 0 4149.3 890" xml:space="preserve">
<path fill="#999999" d="M429,826.4H150.5c-26.4,0-47.7-21.4-47.7-47.7V109.7c0-26.4,21.4-47.7,47.7-47.7H429
	c26.4,0,47.7,21.4,47.7,47.7v668.9C476.8,805.1,455.4,826.4,429,826.4z"/>
<rect x="124.8" y="161.3" fill="#FFFFFF" width="330" height="559.5"/>
<circle fill="#FFFFFF" cx="290" cy="773" r="31"/>
<path fill="#FFFFFF" d="M318.7,125.7h-57.9c-3.4,0-6.2-2.8-6.2-6.2v0c0-3.4,2.8-6.2,6.2-6.2h57.9c3.4,0,6.2,2.8,6.2,6.2v0
	C324.9,122.9,322.1,125.7,318.7,125.7z"/>
<circle fill="#FFFFFF" cx="238.3" cy="119.3" r="6.2"/>
<g>
	<circle fill="#CCCCCC" cx="134.3" cy="170.3" r="2.1"/>
	<circle fill="#CCCCCC" cx="141.3" cy="170.3" r="2.1"/>
	<circle fill="#CCCCCC" cx="148.3" cy="170.3" r="2.1"/>
	<circle fill="#CCCCCC" cx="155.3" cy="170.3" r="2.1"/>
	<circle fill="#CCCCCC" cx="162.3" cy="170.3" r="2.1"/>
</g>
<rect x="428" y="169" fill="none" stroke="#CCCCCC" stroke-miterlimit="10" width="20" height="8"/>
<rect x="429.3" y="170.2" fill="#CCCCCC" width="6.1" height="5.6"/>
<path fill="#CCCCCC" d="M450.2,176.1h-0.4c-0.2,0-0.3-0.1-0.3-0.3v-5.2c0-0.2,0.1-0.3,0.3-0.3h0.4c0.2,0,0.3,0.1,0.3,0.3v5.2
	C450.6,176,450.4,176.1,450.2,176.1z"/>
<path id="fields_bg_46_" opacity="0.26" fill="#FFFFFF" stroke="#828282" stroke-width="2" stroke-miterlimit="10" d="M428.9,507.7
	H151.1c-4.4,0-8-3.6-8-8v-62.1c0-4.4,3.6-8,8-8h277.8c4.4,0,8,3.6,8,8v62.1C436.9,504.1,433.3,507.7,428.9,507.7z"/>
<line opacity="0.26" fill="none" stroke="#C5C5C5" stroke-width="2" stroke-miterlimit="10" x1="143" y1="469" x2="437" y2="469"/>
<g id="fields_bg_44_">
	<g>
		
			<image overflow="visible" opacity="0.25" width="318" height="85" xlink:href="B424E2A1BC5763F7.png"  transform="matrix(1 0 0 1 131 532)">
		</image>
		<path fill="#999999" d="M429,599.2H151.1c-4.4,0-8-3.6-8-8v-43.6c0-4.4,3.6-8,8-8H429c4.4,0,8,3.6,8,8v43.6
			C437,595.6,433.4,599.2,429,599.2z"/>
	</g>
</g>
<circle fill="#999999" cx="163.3" cy="488.3" r="3"/>
<circle fill="#999999" cx="175.5" cy="488.3" r="3"/>
<circle fill="#999999" cx="187.7" cy="488.3" r="3"/>
<circle fill="#999999" cx="200" cy="488.3" r="3"/>
<circle fill="#999999" cx="212.2" cy="488.3" r="3"/>
<circle fill="#999999" cx="224.4" cy="488.3" r="3"/>
<circle fill="#999999" cx="236.6" cy="488.3" r="3"/>
<circle fill="#999999" cx="248.8" cy="488.3" r="3"/>
<circle fill="#999999" cx="261.1" cy="488.3" r="3"/>
<circle fill="#999999" cx="273.3" cy="488.3" r="3"/>
<text transform="matrix(1 0 0 1 158.738 457.3281)" fill="#999999" font-family="'Helvetica'" font-size="21">Email</text>
<circle fill="#999999" cx="290" cy="310" r="66.3"/>
<path id="fields_bg_43_" opacity="0.26" fill="none" stroke="#828282" stroke-width="2" stroke-miterlimit="10" d="M172.5,671.1
	h-21.4c-4.4,0-8-3.6-8-8v-24c0-4.4,3.6-8,8-8h21.4c4.4,0,8,3.6,8,8v24C180.5,667.5,176.9,671.1,172.5,671.1z"/>
<text transform="matrix(1 0 0 1 257.0232 342.7646)" fill="#FFFFFF" font-family="'CherrySwash-Regular'" font-size="84">F</text>
<text transform="matrix(1 0 0 1 193.738 659.3281)" fill="#999999" font-family="'Helvetica'" font-size="21">I agree…Forms Rock!</text>
<g>
	<path fill="#999999" d="M172.4,639.3c0,1.3-0.9,2.4-1.6,3.7l-0.1,0.2l-5.5,11.8c-1.4,2.5-2.6,4.5-3.6,5.9c-1,1.4-1.8,1.2-2.4,1.4
		c-0.6,0.2-1.4,0.1-2.4-0.2c-1-0.3-1.7-0.7-2.1-1.2c-0.7-1-0.8-1.4-1.4-2.9c-0.6-1.5-0.8-1.8-1.6-4c-0.3-1-0.1-2,0.5-3.1
		c0.6-1.1,1.4-1.7,2.4-2c1-0.3,1.8,0.5,2.4,2.2c0.1,0.2,0.1,0.3,0.2,0.4c0.5,1.3,0.9,3.2,1.3,3.6c0.3,0.5,0.7,0.7,1,0.6
		c0.1,0,0.4-0.3,0.7-0.7c0.3-0.4,1.7-2.9,2.1-3.6l5.8-10.5c0.6-1,1.1-1.7,1.6-2.3c0.5-0.6,1-0.9,1.4-1c0.3-0.1,0.6,0,0.8,0.2
		c0.2,0.2,0.4,0.6,0.5,1.2L172.4,639.3z"/>
</g>
<text transform="matrix(1 0 0 1 232.9032 576.9155)" fill="#FFFFFF" font-family="'Helvetica'" font-size="24">Let’s Do It!</text>
<path fill="#999999" d="M3996,826.4h-278.5c-26.4,0-47.7-21.4-47.7-47.7V109.7c0-26.4,21.4-47.7,47.7-47.7H3996
	c26.4,0,47.7,21.4,47.7,47.7v668.9C4043.8,805.1,4022.4,826.4,3996,826.4z"/>
<rect x="3691.8" y="161.3" fill="#FFFFFF" width="330" height="559.5"/>
<circle fill="#FFFFFF" cx="3857" cy="773" r="31"/>
<path fill="#FFFFFF" d="M3885.7,125.7h-57.9c-3.4,0-6.2-2.8-6.2-6.2v0c0-3.4,2.8-6.2,6.2-6.2h57.9c3.4,0,6.2,2.8,6.2,6.2v0
	C3891.9,122.9,3889.1,125.7,3885.7,125.7z"/>
<circle fill="#FFFFFF" cx="3805.3" cy="119.3" r="6.2"/>
<g>
	<circle fill="#CCCCCC" cx="3701.3" cy="170.3" r="2.1"/>
	<circle fill="#CCCCCC" cx="3708.3" cy="170.3" r="2.1"/>
	<circle fill="#CCCCCC" cx="3715.3" cy="170.3" r="2.1"/>
	<circle fill="#CCCCCC" cx="3722.3" cy="170.3" r="2.1"/>
	<circle fill="#CCCCCC" cx="3729.3" cy="170.3" r="2.1"/>
</g>
<rect x="3995" y="169" fill="none" stroke="#CCCCCC" stroke-miterlimit="10" width="20" height="8"/>
<rect x="3996.3" y="170.2" fill="#CCCCCC" width="6.1" height="5.6"/>
<path fill="#CCCCCC" d="M4017.2,176.1h-0.4c-0.2,0-0.3-0.1-0.3-0.3v-5.2c0-0.2,0.1-0.3,0.3-0.3h0.4c0.2,0,0.3,0.1,0.3,0.3v5.2
	C4017.6,176,4017.4,176.1,4017.2,176.1z"/>
<path id="fields_bg_53_" opacity="0.26" fill="#FFFFFF" stroke="#828282" stroke-width="2" stroke-miterlimit="10" d="M3995.9,507.7
	h-277.8c-4.4,0-8-3.6-8-8v-62.1c0-4.4,3.6-8,8-8h277.8c4.4,0,8,3.6,8,8v62.1C4003.9,504.1,4000.3,507.7,3995.9,507.7z"/>
<line opacity="0.26" fill="none" stroke="#C5C5C5" stroke-width="2" stroke-miterlimit="10" x1="3710" y1="469" x2="4004" y2="469"/>
<g id="fields_bg_51_">
	<g>
		
			<image overflow="visible" opacity="0.25" width="318" height="85" xlink:href="B424E2A1BC5763F5.png"  transform="matrix(1 0 0 1 3698 532)">
		</image>
		<path fill="#999999" d="M3996,599.2h-277.9c-4.4,0-8-3.6-8-8v-43.6c0-4.4,3.6-8,8-8H3996c4.4,0,8,3.6,8,8v43.6
			C4004,595.6,4000.4,599.2,3996,599.2z"/>
	</g>
</g>
<circle fill="#999999" cx="3730.3" cy="488.3" r="3"/>
<circle fill="#999999" cx="3742.5" cy="488.3" r="3"/>
<circle fill="#999999" cx="3754.7" cy="488.3" r="3"/>
<circle fill="#999999" cx="3767" cy="488.3" r="3"/>
<circle fill="#999999" cx="3779.2" cy="488.3" r="3"/>
<circle fill="#999999" cx="3791.4" cy="488.3" r="3"/>
<circle fill="#999999" cx="3803.6" cy="488.3" r="3"/>
<circle fill="#999999" cx="3815.8" cy="488.3" r="3"/>
<circle fill="#999999" cx="3828.1" cy="488.3" r="3"/>
<circle fill="#999999" cx="3840.3" cy="488.3" r="3"/>
<text transform="matrix(1 0 0 1 3725.738 457.3281)" fill="#999999" font-family="'Helvetica'" font-size="21">Email</text>
<circle fill="#999999" cx="3857" cy="310" r="66.3"/>
<path id="fields_bg_50_" opacity="0.26" fill="none" stroke="#828282" stroke-width="2" stroke-miterlimit="10" d="M3739.5,671.1
	h-21.4c-4.4,0-8-3.6-8-8v-24c0-4.4,3.6-8,8-8h21.4c4.4,0,8,3.6,8,8v24C3747.5,667.5,3743.9,671.1,3739.5,671.1z"/>
<text transform="matrix(1 0 0 1 3824.0232 342.7646)" fill="#FFFFFF" font-family="'CherrySwash-Regular'" font-size="84">F</text>
<text transform="matrix(1 0 0 1 3760.738 659.3281)" fill="#999999" font-family="'Helvetica'" font-size="21">I agree…Forms Rock!</text>
<g>
	<path fill="#999999" d="M3739.4,639.3c0,1.3-0.9,2.4-1.6,3.7l-0.1,0.2l-5.5,11.8c-1.4,2.5-2.6,4.5-3.6,5.9c-1,1.4-1.8,1.2-2.4,1.4
		c-0.6,0.2-1.4,0.1-2.4-0.2c-1-0.3-1.7-0.7-2.1-1.2c-0.7-1-0.8-1.4-1.4-2.9c-0.6-1.5-0.8-1.8-1.6-4c-0.3-1-0.1-2,0.5-3.1
		c0.6-1.1,1.4-1.7,2.4-2c1-0.3,1.8,0.5,2.4,2.2c0.1,0.2,0.1,0.3,0.2,0.4c0.5,1.3,0.9,3.2,1.3,3.6c0.3,0.5,0.7,0.7,1,0.6
		c0.1,0,0.4-0.3,0.7-0.7c0.3-0.4,1.7-2.9,2.1-3.6l5.8-10.5c0.6-1,1.1-1.7,1.6-2.3c0.5-0.6,1-0.9,1.4-1c0.3-0.1,0.6,0,0.8,0.2
		c0.2,0.2,0.4,0.6,0.5,1.2L3739.4,639.3z"/>
</g>
<text transform="matrix(1 0 0 1 3799.9033 576.9155)" fill="#FFFFFF" font-family="'Helvetica'" font-size="24">Let’s Do It!</text>
<path fill="#999999" d="M1221.3,833.1H753.1c-26.4,0-47.7-21.4-47.7-47.7V100.9c0-26.4,21.4-47.7,47.7-47.7h468.2
	c26.4,0,47.7,21.4,47.7,47.7v684.5C1269.1,811.7,1247.7,833.1,1221.3,833.1z"/>
<path fill="#FFFFFF" d="M1225.3,725.3H749.6c-7.8,0-14.1-6.3-14.1-14.1V104.9c0-7.8,6.3-14.1,14.1-14.1h475.7
	c7.8,0,14.1,6.3,14.1,14.1v606.2C1239.4,718.9,1233.1,725.3,1225.3,725.3z"/>
<ellipse fill="#FFFFFF" cx="984.5" cy="778.6" rx="30.4" ry="31.6"/>
<path id="fields_bg_42_" opacity="0.26" fill="#FFFFFF" stroke="#828282" stroke-width="2" stroke-miterlimit="10" d="M1182.8,494.5
	H792.1c-4.4,0-8-3.6-8-8v-80.5c0-4.4,3.6-8,8-8h390.8c4.4,0,8,3.6,8,8v80.5C1190.8,491,1187.2,494.5,1182.8,494.5z"/>
<line opacity="0.26" fill="none" stroke="#C5C5C5" stroke-width="2" stroke-miterlimit="10" x1="785" y1="446" x2="1191" y2="446"/>
<g id="fields_bg_40_">
	<g>
		
			<image overflow="visible" opacity="0.25" width="422" height="85" xlink:href="B424E2A1BC5763FB.png"  transform="matrix(1 0 0 1 780.5931 523.0434)">
		</image>
		<path fill="#999999" d="M1182.6,591H800.8c-4.4,0-8-3.6-8-8v-44.8c0-4.4,3.6-8,8-8h381.8c4.4,0,8,3.6,8,8V583
			C1190.6,587.4,1187,591,1182.6,591z"/>
	</g>
</g>
<g>
	<ellipse fill="#999999" cx="816.8" cy="469.7" rx="3" ry="3.1"/>
	<ellipse fill="#999999" cx="828.8" cy="469.7" rx="3" ry="3.1"/>
	<ellipse fill="#999999" cx="840.8" cy="469.7" rx="3" ry="3.1"/>
	<ellipse fill="#999999" cx="852.9" cy="469.7" rx="3" ry="3.1"/>
	<ellipse fill="#999999" cx="864.9" cy="469.7" rx="3" ry="3.1"/>
	<ellipse fill="#999999" cx="876.9" cy="469.7" rx="3" ry="3.1"/>
	<ellipse fill="#999999" cx="888.9" cy="469.7" rx="3" ry="3.1"/>
	<ellipse fill="#999999" cx="900.9" cy="469.7" rx="3" ry="3.1"/>
</g>
<text transform="matrix(0.9625 0 0 1 812.8049 432.7056)" fill="#999999" font-family="'Helvetica'" font-size="21.4267">Email</text>
<ellipse fill="#999999" cx="983.5" cy="245" rx="65.1" ry="67.6"/>
<text transform="matrix(0.9625 0 0 1 951.1262 278.3892)" fill="#FFFFFF" font-family="'CherrySwash-Regular'" font-size="85.7069">F</text>
<text transform="matrix(0.9625 0 0 1 931.3196 568.3149)" fill="#FFFFFF" font-family="'Helvetica'" font-size="24.4877">Let’s Do It!</text>
<path fill="#999999" d="M3385.3,833.1h-468.2c-26.4,0-47.7-21.4-47.7-47.7V100.9c0-26.4,21.4-47.7,47.7-47.7h468.2
	c26.4,0,47.7,21.4,47.7,47.7v684.5C3433.1,811.7,3411.7,833.1,3385.3,833.1z"/>
<path fill="#FFFFFF" d="M3389.3,725.3h-475.7c-7.8,0-14.1-6.3-14.1-14.1V104.9c0-7.8,6.3-14.1,14.1-14.1h475.7
	c7.8,0,14.1,6.3,14.1,14.1v606.2C3403.4,718.9,3397.1,725.3,3389.3,725.3z"/>
<ellipse fill="#FFFFFF" cx="3148.5" cy="778.6" rx="30.4" ry="31.6"/>
<path id="fields_bg_49_" opacity="0.26" fill="#FFFFFF" stroke="#828282" stroke-width="2" stroke-miterlimit="10" d="M3346.8,494.5
	h-390.8c-4.4,0-8-3.6-8-8v-80.5c0-4.4,3.6-8,8-8h390.8c4.4,0,8,3.6,8,8v80.5C3354.8,491,3351.2,494.5,3346.8,494.5z"/>
<line opacity="0.26" fill="none" stroke="#C5C5C5" stroke-width="2" stroke-miterlimit="10" x1="2949" y1="446" x2="3355" y2="446"/>
<g id="fields_bg_47_">
	<g>
		
			<image overflow="visible" opacity="0.25" width="422" height="85" xlink:href="B424E2A1BC5763FD.png"  transform="matrix(1 0 0 1 2944.593 523.0434)">
		</image>
		<path fill="#999999" d="M3346.6,591h-381.8c-4.4,0-8-3.6-8-8v-44.8c0-4.4,3.6-8,8-8h381.8c4.4,0,8,3.6,8,8V583
			C3354.6,587.4,3351,591,3346.6,591z"/>
	</g>
</g>
<g>
	<ellipse fill="#999999" cx="2980.8" cy="469.7" rx="3" ry="3.1"/>
	<ellipse fill="#999999" cx="2992.8" cy="469.7" rx="3" ry="3.1"/>
	<ellipse fill="#999999" cx="3004.8" cy="469.7" rx="3" ry="3.1"/>
	<ellipse fill="#999999" cx="3016.9" cy="469.7" rx="3" ry="3.1"/>
	<ellipse fill="#999999" cx="3028.9" cy="469.7" rx="3" ry="3.1"/>
	<ellipse fill="#999999" cx="3040.9" cy="469.7" rx="3" ry="3.1"/>
	<ellipse fill="#999999" cx="3052.9" cy="469.7" rx="3" ry="3.1"/>
	<ellipse fill="#999999" cx="3064.9" cy="469.7" rx="3" ry="3.1"/>
</g>
<text transform="matrix(0.9625 0 0 1 2976.8049 432.7056)" fill="#999999" font-family="'Helvetica'" font-size="21.4267">Email</text>
<ellipse fill="#999999" cx="3147.5" cy="245" rx="65.1" ry="67.6"/>
<text transform="matrix(0.9625 0 0 1 3115.1262 278.3892)" fill="#FFFFFF" font-family="'CherrySwash-Regular'" font-size="85.7069">F</text>
<text transform="matrix(0.9625 0 0 1 3095.3196 568.3149)" fill="#FFFFFF" font-family="'Helvetica'" font-size="24.4877">Let’s Do It!</text>
<path fill="#999999" d="M2578.5,779.6H1555.3c-26.4,0-47.7-21.4-47.7-47.7v-630c0-26.4,21.4-47.7,47.7-47.7h1023.2
	c26.4,0,47.7,21.4,47.7,47.7v630C2626.2,758.2,2604.8,779.6,2578.5,779.6z"/>
<path fill="#FFFFFF" d="M2595.1,676.8H1538.7V98.7c0-6.6,5.4-12,12-12h1032.4c6.6,0,12,5.4,12,12V676.8z"/>
<path id="fields_bg_39_" opacity="0.26" fill="#FFFFFF" stroke="#828282" stroke-width="2" stroke-miterlimit="10" d="M2258.9,393.9
	h-384c-4.4,0-8-3.6-8-8v-38.4c0-4.4,3.6-8,8-8h384c4.4,0,8,3.6,8,8v38.4C2266.9,390.3,2263.3,393.9,2258.9,393.9z"/>
<path id="fields_bg_38_" opacity="0.26" fill="#FFFFFF" stroke="#828282" stroke-width="2" stroke-miterlimit="10" d="M2302.8,606.2
	h-469c-4.4,0-8-3.6-8-8V287.4c0-4.4,3.6-8,8-8h469c4.4,0,8,3.6,8,8v310.8C2310.8,602.6,2307.2,606.2,2302.8,606.2z"/>
<g id="fields_bg_36_">
	<g>
		
			<image overflow="visible" opacity="0.25" width="207" height="86" xlink:href="B424E2A1BC5763FF.png"  transform="matrix(1 0 0 1 2069 492)">
		</image>
		<path fill="#999999" d="M2255.8,560h-166.5c-4.4,0-8-3.6-8-8v-44.8c0-4.4,3.6-8,8-8h166.5c4.4,0,8,3.6,8,8V552
			C2263.8,556.4,2260.2,560,2255.8,560z"/>
	</g>
</g>
<g>
	<ellipse fill="#999999" cx="1899" cy="442.7" rx="3" ry="3.1"/>
	<ellipse fill="#999999" cx="1911" cy="442.7" rx="3" ry="3.1"/>
	<ellipse fill="#999999" cx="1923.1" cy="442.7" rx="3" ry="3.1"/>
	<ellipse fill="#999999" cx="1935.1" cy="442.7" rx="3" ry="3.1"/>
	<ellipse fill="#999999" cx="1947.1" cy="442.7" rx="3" ry="3.1"/>
	<ellipse fill="#999999" cx="1959.1" cy="442.7" rx="3" ry="3.1"/>
	<ellipse fill="#999999" cx="1971.1" cy="442.7" rx="3" ry="3.1"/>
	<ellipse fill="#999999" cx="1983.1" cy="442.7" rx="3" ry="3.1"/>
</g>
<text transform="matrix(0.9163 0 0 1 1895.0084 378.4297)" fill="#999999" font-family="'Helvetica'" font-size="22.5067">Email</text>
<ellipse fill="#999999" cx="2065.7" cy="185.9" rx="65.1" ry="67.6"/>
<text transform="matrix(0.9625 0 0 1 2033.3297 219.3601)" fill="#FFFFFF" font-family="'CherrySwash-Regular'" font-size="85.7069">F</text>
<text transform="matrix(0.9625 0 0 1 2117.4434 538.2859)" fill="#FFFFFF" font-family="'Helvetica'" font-size="24">Let’s Do It!</text>
<polygon fill="#999999" points="2190.1,850 2150.9,774 1982.9,774 1943.7,850 1904,850 1904,862 2229,862 2229,850 "/>
<path id="fields_bg_35_" opacity="0.26" fill="#FFFFFF" stroke="#828282" stroke-width="2" stroke-miterlimit="10" d="M2257.9,469.9
	h-384c-4.4,0-8-3.6-8-8v-38.4c0-4.4,3.6-8,8-8h384c4.4,0,8,3.6,8,8v38.4C2265.9,466.3,2262.3,469.9,2257.9,469.9z"/>
<path id="fields_bg_34_" opacity="0.26" fill="none" stroke="#828282" stroke-width="2" stroke-miterlimit="10" d="M1895,547.9
	h-21.4c-4.4,0-8-3.6-8-8v-24c0-4.4,3.6-8,8-8h21.4c4.4,0,8,3.6,8,8v24C1903,544.3,1899.4,547.9,1895,547.9z"/>
<text transform="matrix(1 0 0 1 1914.5345 536.3135)" fill="#999999" font-family="'Helvetica'" font-size="24">I agree</text>
<g>
	<path fill="#999999" d="M1893.2,519c0,1.1-0.7,1.9-1.3,3l-0.1,0.2l-4.5,9.6c-1.1,2-2.1,3.6-3,4.8c-0.9,1.2-1.5,1-2,1.1
		c-0.5,0.1-1.1,0.1-1.9-0.2c-0.8-0.3-1.4-0.6-1.7-1c-0.5-0.8-0.7-1.1-1.1-2.4c-0.5-1.2-0.7-1.4-1.3-3.3c-0.2-0.8-0.1-1.6,0.4-2.5
		c0.5-0.9,1.2-1.4,2-1.6c0.8-0.2,1.4,0.4,2,1.8c0.1,0.2,0.1,0.3,0.1,0.4c0.4,1.1,0.8,2.6,1,3c0.3,0.4,0.6,0.5,0.8,0.5
		c0.1,0,0.3-0.2,0.6-0.6c0.3-0.3,1.4-2.4,1.7-3l4.7-8.6c0.5-0.8,0.9-1.4,1.3-1.9c0.4-0.5,0.8-0.7,1.1-0.8c0.3-0.1,0.5,0,0.6,0.1
		c0.2,0.2,0.3,0.5,0.4,0.9L1893.2,519z"/>
</g>
</svg>
