<?xml version="1.0" encoding="utf-8"?>
<!-- Generator: Adobe Illustrator 18.1.1, SVG Export Plug-In . SVG Version: 6.00 Build 0)  -->
<svg version="1.1" id="devices" xmlns="http://www.w3.org/2000/svg" xmlns:xlink="http://www.w3.org/1999/xlink" x="0px" y="0px"
	 viewBox="0 0 612 792" enable-background="new 0 0 612 792" xml:space="preserve">
<g id="mobile-left">
	<path fill="#999999" d="M63.3,452.3H22.2c-3.9,0-7-3.2-7-7v-98.7c0-3.9,3.2-7,7-7h41.1c3.9,0,7,3.2,7,7v98.7
		C70.3,449.1,67.2,452.3,63.3,452.3z"/>
	<rect x="18.4" y="354.2" fill="#FFFFFF" width="48.7" height="82.5"/>
	<circle fill="#FFFFFF" cx="42.8" cy="444.4" r="4.6"/>
	<path fill="#FFFFFF" d="M47,348.9h-8.5c-0.5,0-0.9-0.4-0.9-0.9l0,0c0-0.5,0.4-0.9,0.9-0.9H47c0.5,0,0.9,0.4,0.9,0.9l0,0
		C47.9,348.5,47.5,348.9,47,348.9z"/>
	<circle fill="#FFFFFF" cx="35.1" cy="348" r="0.9"/>
	<circle fill="#CCCCCC" cx="19.8" cy="355.5" r="0.3"/>
	<circle fill="#CCCCCC" cx="20.8" cy="355.5" r="0.3"/>
	<circle fill="#CCCCCC" cx="21.9" cy="355.5" r="0.3"/>
	<circle fill="#CCCCCC" cx="22.9" cy="355.5" r="0.3"/>
	<circle fill="#CCCCCC" cx="23.9" cy="355.5" r="0.3"/>
	<path fill="#CCCCCC" d="M66.4,356.3L66.4,356.3c-0.1,0-0.1,0-0.1,0v-0.8c0,0,0,0,0,0h0.1c0,0,0,0,0,0L66.4,356.3
		C66.5,356.3,66.4,356.3,66.4,356.3z"/>
	<rect x="63.1" y="355.3" fill="#CCCCCC" width="2.9" height="1.2"/>
	<rect x="63.3" y="355.5" fill="#FFFFFF" width="0.9" height="0.8"/>
	<g id="fields">
		<path opacity="0.26" fill="#FFFFFF" stroke="#828282" stroke-width="2" stroke-miterlimit="10" enable-background="new    " d="
			M63.3,405.2h-41c-0.6,0-1.2-0.5-1.2-1.2v-9.2c0-0.6,0.5-1.2,1.2-1.2h41c0.6,0,1.2,0.5,1.2,1.2v9.2
			C64.4,404.7,63.9,405.2,63.3,405.2z"/>
		
			<line opacity="0.26" fill="none" stroke="#C5C5C5" stroke-width="2" stroke-miterlimit="10" enable-background="new    " x1="21.1" y1="399.5" x2="64.5" y2="399.5"/>
		<circle fill="#999999" cx="24.1" cy="402.4" r="0.4"/>
		<circle fill="#999999" cx="25.9" cy="402.4" r="0.4"/>
		<circle fill="#999999" cx="27.7" cy="402.4" r="0.4"/>
		<circle fill="#999999" cx="29.5" cy="402.4" r="0.4"/>
		<circle fill="#999999" cx="31.3" cy="402.4" r="0.4"/>
		<circle fill="#999999" cx="33.1" cy="402.4" r="0.4"/>
		<circle fill="#999999" cx="34.9" cy="402.4" r="0.4"/>
		<circle fill="#999999" cx="36.7" cy="402.4" r="0.4"/>
		<circle fill="#999999" cx="38.5" cy="402.4" r="0.4"/>
		<circle fill="#999999" cx="40.3" cy="402.4" r="0.4"/>
		<text transform="matrix(1 0 0 1 23.4132 397.8181)" fill="#999999" font-family="'Helvetica'" font-size="3.0974">Email</text>
	</g>
	<g id="logo">
		<circle fill="#999999" cx="42.8" cy="376.1" r="9.8"/>
		<text transform="matrix(1 0 0 1 37.9098 380.921)" fill="#FFFFFF" font-family="'CherrySwash-Regular'" font-size="12.3896">F</text>
	</g>
	<g id="checkbox">
		<path opacity="0.26" fill="none" stroke="#828282" stroke-width="2" stroke-miterlimit="10" enable-background="new    " d="
			M25.4,429.3h-3.2c-0.6,0-1.2-0.5-1.2-1.2v-3.5c0-0.6,0.5-1.2,1.2-1.2h3.2c0.6,0,1.2,0.5,1.2,1.2v3.5
			C26.6,428.8,26.1,429.3,25.4,429.3z"/>
		<text transform="matrix(1 0 0 1 28.5752 427.613)" fill="#999999" font-family="'Helvetica'" font-size="3.0974">I agree…Forms Rock!</text>
		<path fill="#999999" d="M25.4,424.7c0,0.2-0.1,0.4-0.2,0.5l0,0l-0.8,1.7c-0.2,0.4-0.4,0.7-0.5,0.9c-0.1,0.2-0.3,0.2-0.4,0.2
			c-0.1,0-0.2,0-0.4,0c-0.1,0-0.3-0.1-0.3-0.2c-0.1-0.1-0.1-0.2-0.2-0.4c-0.1-0.2-0.1-0.3-0.2-0.6c0-0.1,0-0.3,0.1-0.5
			c0.1-0.2,0.2-0.3,0.4-0.3s0.3,0.1,0.4,0.3c0,0,0,0,0,0.1c0.1,0.2,0.1,0.5,0.2,0.5c0,0.1,0.1,0.1,0.1,0.1c0,0,0.1,0,0.1-0.1
			s0.3-0.4,0.3-0.5l0.9-1.5c0.1-0.1,0.2-0.3,0.2-0.3c0.1-0.1,0.1-0.1,0.2-0.1c0,0,0.1,0,0.1,0C25.4,424.5,25.4,424.5,25.4,424.7
			L25.4,424.7z"/>
	</g>
	<g id="button">
		<path fill="#999999" d="M63.3,418.7h-41c-0.6,0-1.2-0.5-1.2-1.2v-6.4c0-0.6,0.5-1.2,1.2-1.2h41c0.6,0,1.2,0.5,1.2,1.2v6.4
			C64.5,418.2,63.9,418.7,63.3,418.7z"/>
		<text transform="matrix(1 0 0 1 34.3519 415.4565)" fill="#FFFFFF" font-family="'Helvetica'" font-size="3.5399">Let’s Do It!</text>
	</g>
</g>
<g id="mobile-right">
	<path fill="#999999" d="M589.4,452.3h-41.1c-3.9,0-7-3.2-7-7v-98.7c0-3.9,3.2-7,7-7h41.1c3.9,0,7,3.2,7,7v98.7
		C596.4,449.1,593.3,452.3,589.4,452.3z"/>
	<rect x="544.5" y="354.2" fill="#FFFFFF" width="48.7" height="82.5"/>
	<circle fill="#FFFFFF" cx="568.9" cy="444.4" r="4.6"/>
	<path fill="#FFFFFF" d="M573.1,348.9h-8.5c-0.5,0-0.9-0.4-0.9-0.9l0,0c0-0.5,0.4-0.9,0.9-0.9h8.5c0.5,0,0.9,0.4,0.9,0.9l0,0
		C574,348.5,573.6,348.9,573.1,348.9z"/>
	<circle fill="#FFFFFF" cx="561.3" cy="348" r="0.9"/>
	<circle fill="#CCCCCC" cx="545.9" cy="355.5" r="0.3"/>
	<circle fill="#CCCCCC" cx="547" cy="355.5" r="0.3"/>
	<circle fill="#CCCCCC" cx="548" cy="355.5" r="0.3"/>
	<circle fill="#CCCCCC" cx="549" cy="355.5" r="0.3"/>
	<circle fill="#CCCCCC" cx="550.1" cy="355.5" r="0.3"/>
	<rect x="589.2" y="355.3" fill="#CCCCCC" width="2.9" height="1.2"/>
	<rect x="589.4" y="355.5" fill="#FFFFFF" width="0.9" height="0.8"/>
	<path fill="#CCCCCC" d="M592.5,356.3L592.5,356.3c-0.1,0-0.1,0-0.1,0v-0.8c0,0,0,0,0,0h0.1c0,0,0,0,0,0L592.5,356.3
		C592.6,356.3,592.5,356.3,592.5,356.3z"/>
	<path opacity="0.26" fill="#FFFFFF" stroke="#828282" stroke-width="2" stroke-miterlimit="10" enable-background="new    " d="
		M589.4,405.2h-41c-0.6,0-1.2-0.5-1.2-1.2v-9.2c0-0.6,0.5-1.2,1.2-1.2h41c0.6,0,1.2,0.5,1.2,1.2v9.2
		C590.6,404.7,590,405.2,589.4,405.2z"/>
	
		<line opacity="0.26" fill="none" stroke="#C5C5C5" stroke-width="2" stroke-miterlimit="10" enable-background="new    " x1="547.2" y1="399.5" x2="590.6" y2="399.5"/>
	<path fill="#999999" d="M589.4,418.7h-41c-0.6,0-1.2-0.5-1.2-1.2v-6.4c0-0.6,0.5-1.2,1.2-1.2h41c0.6,0,1.2,0.5,1.2,1.2v6.4
		C590.6,418.2,590,418.7,589.4,418.7z"/>
	<circle fill="#999999" cx="550.2" cy="402.4" r="0.4"/>
	<circle fill="#999999" cx="552" cy="402.4" r="0.4"/>
	<circle fill="#999999" cx="553.8" cy="402.4" r="0.4"/>
	<circle fill="#999999" cx="555.6" cy="402.4" r="0.4"/>
	<circle fill="#999999" cx="557.4" cy="402.4" r="0.4"/>
	<circle fill="#999999" cx="559.2" cy="402.4" r="0.4"/>
	<circle fill="#999999" cx="561" cy="402.4" r="0.4"/>
	<circle fill="#999999" cx="562.8" cy="402.4" r="0.4"/>
	<circle fill="#999999" cx="564.6" cy="402.4" r="0.4"/>
	<circle fill="#999999" cx="566.4" cy="402.4" r="0.4"/>
	<text transform="matrix(1 0 0 1 549.5269 397.8181)" fill="#999999" font-family="'Helvetica'" font-size="3.0974">Email</text>
	<circle fill="#999999" cx="568.9" cy="376.1" r="9.8"/>
	<path opacity="0.26" fill="none" stroke="#828282" stroke-width="2" stroke-miterlimit="10" enable-background="new    " d="
		M551.6,429.3h-3.2c-0.6,0-1.2-0.5-1.2-1.2v-3.5c0-0.6,0.5-1.2,1.2-1.2h3.2c0.6,0,1.2,0.5,1.2,1.2v3.5
		C552.7,428.8,552.2,429.3,551.6,429.3z"/>
	<text transform="matrix(1 0 0 1 564.024 380.921)" fill="#FFFFFF" font-family="'CherrySwash-Regular'" font-size="12.3896">F</text>
	<text transform="matrix(1 0 0 1 554.6894 427.613)" fill="#999999" font-family="'Helvetica'" font-size="3.0974">I agree…Forms Rock!</text>
	<path fill="#999999" d="M551.5,424.7c0,0.2-0.1,0.4-0.2,0.5l0,0l-0.8,1.7c-0.2,0.4-0.4,0.7-0.5,0.9c-0.1,0.2-0.3,0.2-0.4,0.2
		c-0.1,0-0.2,0-0.4,0c-0.1,0-0.3-0.1-0.3-0.2c-0.1-0.1-0.1-0.2-0.2-0.4c-0.1-0.2-0.1-0.3-0.2-0.6c0-0.1,0-0.3,0.1-0.5
		c0.1-0.2,0.2-0.3,0.4-0.3c0.1,0,0.3,0.1,0.4,0.3c0,0,0,0,0,0.1c0.1,0.2,0.1,0.5,0.2,0.5c0,0.1,0.1,0.1,0.1,0.1c0,0,0.1,0,0.1-0.1
		c0-0.1,0.3-0.4,0.3-0.5l0.9-1.5c0.1-0.1,0.2-0.3,0.2-0.3c0.1-0.1,0.1-0.1,0.2-0.1c0,0,0.1,0,0.1,0
		C551.5,424.5,551.5,424.5,551.5,424.7L551.5,424.7z"/>
	<text transform="matrix(1 0 0 1 560.4666 415.4565)" fill="#FFFFFF" font-family="'Helvetica'" font-size="3.5399">Let’s Do It!</text>
</g>
<g id="tablet-left">
	<path fill="#999999" d="M180.1,453.2h-69.1c-3.9,0-7-3.2-7-7v-101c0-3.9,3.2-7,7-7h69.1c3.9,0,7,3.2,7,7v101
		C187.2,450.1,184,453.2,180.1,453.2z"/>
	<path fill="#FFFFFF" d="M180.7,437.3h-70.2c-1.2,0-2.1-0.9-2.1-2.1v-89.4c0-1.2,0.9-2.1,2.1-2.1h70.2c1.2,0,2.1,0.9,2.1,2.1v89.4
		C182.8,436.4,181.9,437.3,180.7,437.3z"/>
	<ellipse fill="#FFFFFF" cx="145.2" cy="445.2" rx="4.5" ry="4.7"/>
	<path opacity="0.26" fill="#FFFFFF" stroke="#828282" stroke-width="2" stroke-miterlimit="10" enable-background="new    " d="
		M174.5,403.3h-57.6c-0.6,0-1.2-0.5-1.2-1.2v-11.9c0-0.6,0.5-1.2,1.2-1.2h57.6c0.6,0,1.2,0.5,1.2,1.2v11.9
		C175.6,402.8,175.1,403.3,174.5,403.3z"/>
	
		<line opacity="0.26" fill="none" stroke="#C5C5C5" stroke-width="2" stroke-miterlimit="10" enable-background="new    " x1="115.8" y1="396.1" x2="175.7" y2="396.1"/>
	<path fill="#999999" d="M174.4,417.5h-56.3c-0.6,0-1.2-0.5-1.2-1.2v-6.6c0-0.6,0.5-1.2,1.2-1.2h56.3c0.6,0,1.2,0.5,1.2,1.2v6.6
		C175.6,417,175.1,417.5,174.4,417.5z"/>
	<ellipse fill="#999999" cx="120.5" cy="399.6" rx="0.4" ry="0.5"/>
	<ellipse fill="#999999" cx="122.2" cy="399.6" rx="0.4" ry="0.5"/>
	<ellipse fill="#999999" cx="124" cy="399.6" rx="0.4" ry="0.5"/>
	<ellipse fill="#999999" cx="125.8" cy="399.6" rx="0.4" ry="0.5"/>
	<ellipse fill="#999999" cx="127.6" cy="399.6" rx="0.4" ry="0.5"/>
	<ellipse fill="#999999" cx="129.3" cy="399.6" rx="0.4" ry="0.5"/>
	<ellipse fill="#999999" cx="131.1" cy="399.6" rx="0.4" ry="0.5"/>
	<ellipse fill="#999999" cx="132.9" cy="399.6" rx="0.4" ry="0.5"/>
	<text transform="matrix(0.9625 0 0 1 119.8849 394.1864)" fill="#999999" font-family="'Helvetica'" font-size="3.1608">Email</text>
	<ellipse fill="#999999" cx="145.1" cy="366.5" rx="9.6" ry="10"/>
	
		<text transform="matrix(0.9625 0 0 1 140.2863 371.4258)" fill="#FFFFFF" font-family="'CherrySwash-Regular'" font-size="12.6418">F</text>
	<text transform="matrix(0.9625 0 0 1 137.3645 414.1887)" fill="#FFFFFF" font-family="'Helvetica'" font-size="3.6121">Let’s Do It!</text>
</g>
<g id="tablet-right">
	<path fill="#999999" d="M499.3,453.2h-69.1c-3.9,0-7-3.2-7-7v-101c0-3.9,3.2-7,7-7h69.1c3.9,0,7,3.2,7,7v101
		C506.4,450.1,503.2,453.2,499.3,453.2z"/>
	<path fill="#FFFFFF" d="M499.9,437.3h-70.2c-1.2,0-2.1-0.9-2.1-2.1v-89.4c0-1.2,0.9-2.1,2.1-2.1h70.2c1.2,0,2.1,0.9,2.1,2.1v89.4
		C502,436.4,501.1,437.3,499.9,437.3z"/>
	<ellipse fill="#FFFFFF" cx="464.4" cy="445.2" rx="4.5" ry="4.7"/>
	<path opacity="0.26" fill="#FFFFFF" stroke="#828282" stroke-width="2" stroke-miterlimit="10" enable-background="new    " d="
		M493.6,403.3H436c-0.6,0-1.2-0.5-1.2-1.2v-11.9c0-0.6,0.5-1.2,1.2-1.2h57.6c0.6,0,1.2,0.5,1.2,1.2v11.9
		C494.8,402.8,494.3,403.3,493.6,403.3z"/>
	
		<line opacity="0.26" fill="none" stroke="#C5C5C5" stroke-width="2" stroke-miterlimit="10" enable-background="new    " x1="435" y1="396.1" x2="494.8" y2="396.1"/>
	<path fill="#999999" d="M493.6,417.5h-56.3c-0.6,0-1.2-0.5-1.2-1.2v-6.6c0-0.6,0.5-1.2,1.2-1.2h56.3c0.6,0,1.2,0.5,1.2,1.2v6.6
		C494.8,417,494.3,417.5,493.6,417.5z"/>
	<ellipse fill="#999999" cx="439.7" cy="399.6" rx="0.4" ry="0.5"/>
	<ellipse fill="#999999" cx="441.4" cy="399.6" rx="0.4" ry="0.5"/>
	<ellipse fill="#999999" cx="443.2" cy="399.6" rx="0.4" ry="0.5"/>
	<ellipse fill="#999999" cx="445" cy="399.6" rx="0.4" ry="0.5"/>
	<ellipse fill="#999999" cx="446.7" cy="399.6" rx="0.4" ry="0.5"/>
	<ellipse fill="#999999" cx="448.5" cy="399.6" rx="0.4" ry="0.5"/>
	<ellipse fill="#999999" cx="450.3" cy="399.6" rx="0.4" ry="0.5"/>
	<ellipse fill="#999999" cx="452.1" cy="399.6" rx="0.4" ry="0.5"/>
	<text transform="matrix(0.9625 0 0 1 439.0626 394.1864)" fill="#999999" font-family="'Helvetica'" font-size="3.1608">Email</text>
	<ellipse fill="#999999" cx="464.2" cy="366.5" rx="9.6" ry="10"/>
	
		<text transform="matrix(0.9625 0 0 1 459.4651 371.4258)" fill="#FFFFFF" font-family="'CherrySwash-Regular'" font-size="12.6418">F</text>
	<text transform="matrix(0.9625 0 0 1 456.5432 414.1887)" fill="#FFFFFF" font-family="'Helvetica'" font-size="3.6121">Let’s Do It!</text>
</g>
<g id="desktop">
	<path fill="#999999" d="M380.3,445.4H229.4c-3.9,0-7-3.2-7-7v-92.9c0-3.9,3.2-7,7-7h150.9c3.9,0,7,3.2,7,7v92.9
		C387.4,442.2,384.2,445.4,380.3,445.4z"/>
	<path fill="#FFFFFF" d="M382.8,430.2H227v-85.3c0-1,0.8-1.8,1.8-1.8H381c1,0,1.8,0.8,1.8,1.8V430.2z"/>
	<path opacity="0.26" fill="#FFFFFF" stroke="#828282" stroke-width="2" stroke-miterlimit="10" enable-background="new    " d="
		M333.2,388.5h-56.6c-0.6,0-1.2-0.5-1.2-1.2v-5.7c0-0.6,0.5-1.2,1.2-1.2h56.6c0.6,0,1.2,0.5,1.2,1.2v5.7
		C334.4,387.9,333.8,388.5,333.2,388.5z"/>
	<path opacity="0.26" fill="#FFFFFF" stroke="#828282" stroke-width="2" stroke-miterlimit="10" enable-background="new    " d="
		M339.7,419.8h-69.2c-0.6,0-1.2-0.5-1.2-1.2v-45.8c0-0.6,0.5-1.2,1.2-1.2h69.2c0.6,0,1.2,0.5,1.2,1.2v45.8
		C340.8,419.2,340.3,419.8,339.7,419.8z"/>
	<path fill="#999999" d="M332.7,413h-24.6c-0.6,0-1.2-0.5-1.2-1.2v-6.6c0-0.6,0.5-1.2,1.2-1.2h24.6c0.6,0,1.2,0.5,1.2,1.2v6.6
		C333.9,412.4,333.4,413,332.7,413z"/>
	<ellipse fill="#999999" cx="280.1" cy="395.7" rx="0.4" ry="0.5"/>
	<ellipse fill="#999999" cx="281.9" cy="395.7" rx="0.4" ry="0.5"/>
	<ellipse fill="#999999" cx="283.6" cy="395.7" rx="0.4" ry="0.5"/>
	<ellipse fill="#999999" cx="285.4" cy="395.7" rx="0.4" ry="0.5"/>
	<ellipse fill="#999999" cx="287.2" cy="395.7" rx="0.4" ry="0.5"/>
	<ellipse fill="#999999" cx="289" cy="395.7" rx="0.4" ry="0.5"/>
	<ellipse fill="#999999" cx="290.7" cy="395.7" rx="0.4" ry="0.5"/>
	<ellipse fill="#999999" cx="292.5" cy="395.7" rx="0.4" ry="0.5"/>
	<text transform="matrix(0.9163 0 0 1 279.504 386.1813)" fill="#999999" font-family="'Helvetica'" font-size="3.3201">Email</text>
	<ellipse fill="#999999" cx="304.7" cy="357.8" rx="9.6" ry="10"/>
	
		<text transform="matrix(0.9625 0 0 1 299.9058 362.7195)" fill="#FFFFFF" font-family="'CherrySwash-Regular'" font-size="12.6418">F</text>
	<text transform="matrix(0.9625 0 0 1 312.3115 409.7596)" fill="#FFFFFF" font-family="'Helvetica'" font-size="3.5399">Let’s Do It!</text>
	<polygon fill="#999999" points="323,455.7 317.2,444.5 292.5,444.5 286.7,455.7 280.8,455.7 280.8,457.5 328.8,457.5 328.8,455.7 	
		"/>
	<path opacity="0.26" fill="#FFFFFF" stroke="#828282" stroke-width="2" stroke-miterlimit="10" enable-background="new    " d="
		M333,399.7h-56.6c-0.6,0-1.2-0.5-1.2-1.2v-5.7c0-0.6,0.5-1.2,1.2-1.2H333c0.6,0,1.2,0.5,1.2,1.2v5.7
		C334.2,399.1,333.7,399.7,333,399.7z"/>
	<path opacity="0.26" fill="none" stroke="#828282" stroke-width="2" stroke-miterlimit="10" enable-background="new    " d="
		M279.5,411.2h-3.2c-0.6,0-1.2-0.5-1.2-1.2v-3.5c0-0.6,0.5-1.2,1.2-1.2h3.2c0.6,0,1.2,0.5,1.2,1.2v3.5
		C280.7,410.6,280.2,411.2,279.5,411.2z"/>
	<text transform="matrix(1 0 0 1 282.3838 409.4686)" fill="#999999" font-family="'Helvetica'" font-size="3.5399">I agree</text>
	<path fill="#999999" d="M279.2,406.9c0,0.2-0.1,0.3-0.2,0.4l0,0l-0.7,1.4c-0.2,0.3-0.3,0.5-0.4,0.7s-0.2,0.1-0.3,0.2
		c-0.1,0-0.2,0-0.3,0c-0.1,0-0.2-0.1-0.3-0.1c-0.1-0.1-0.1-0.2-0.2-0.4c-0.1-0.2-0.1-0.2-0.2-0.5c0-0.1,0-0.2,0.1-0.4
		c0.1-0.1,0.2-0.2,0.3-0.2c0.1,0,0.2,0.1,0.3,0.3c0,0,0,0,0,0.1c0.1,0.2,0.1,0.4,0.1,0.4c0,0.1,0.1,0.1,0.1,0.1c0,0,0,0,0.1-0.1
		c0,0,0.2-0.4,0.3-0.4l0.7-1.3c0.1-0.1,0.1-0.2,0.2-0.3c0.1-0.1,0.1-0.1,0.2-0.1c0,0,0.1,0,0.1,0
		C279.2,406.7,279.2,406.8,279.2,406.9L279.2,406.9z"/>
</g>
</svg>
