<svg xmlns="http://www.w3.org/2000/svg" viewBox="0 0 4550 1750"><g id="devices"><g id="mobile-right"><g id="shell_4_"><path fill="#999999" d="M4198.3 1229.7h-278.5c-26.4 0-47.7-21.4-47.7-47.7V513c0-26.4 21.4-47.7 47.7-47.7h278.5c26.4 0 47.7 21.4 47.7 47.7V1182C4246 1208.3 4224.6 1229.7 4198.3 1229.7z"/><rect x="3894" y="564.5" fill="#FFFFFF" width="330" height="559.5"/><circle fill="#FFFFFF" cx="4059.3" cy="1176.3" r="31"/><g id="signal"><circle fill="#CCCCCC" cx="3903.6" cy="573.6" r="2.1"/><circle fill="#CCCCCC" cx="3910.6" cy="573.6" r="2.1"/><circle fill="#CCCCCC" cx="3917.6" cy="573.6" r="2.1"/><circle fill="#CCCCCC" cx="3924.6" cy="573.6" r="2.1"/><circle fill="#CCCCCC" cx="3931.6" cy="573.6" r="2.1"/></g><g id="battery_1_"><rect x="4197.3" y="572.3" fill="none" stroke="#CCCCCC" stroke-miterlimit="10" width="20" height="8"/><rect x="4198.5" y="573.5" fill="#CCCCCC" width="6.1" height="5.6"/><path fill="#CCCCCC" d="M4219.5 579.4h-0.4c-0.2 0-0.3-0.1-0.3-0.3v-5.2c0-0.2 0.1-0.3 0.3-0.3h0.4c0.2 0 0.3 0.1 0.3 0.3v5.2C4219.8 579.2 4219.7 579.4 4219.5 579.4z"/></g><path fill="#FFFFFF" d="M4088 528.9h-57.9c-3.4 0-6.2-2.8-6.2-6.2l0 0c0-3.4 2.8-6.2 6.2-6.2h57.9c3.4 0 6.2 2.8 6.2 6.2l0 0C4094.1 526.2 4091.4 528.9 4088 528.9z"/><circle fill="#FFFFFF" cx="4007.6" cy="522.6" r="6.2"/></g><g id="fields_3_"><path id="fields_bg_53_" opacity="0.26" fill="#FFFFFF" stroke="#828282" stroke-width="2" stroke-miterlimit="10" d="M4198.2 910.9h-277.8c-4.4 0-8-3.6-8-8v-62.1c0-4.4 3.6-8 8-8h277.8c4.4 0 8 3.6 8 8v62.1C4206.2 907.4 4202.6 910.9 4198.2 910.9z"/><line opacity="0.26" fill="none" stroke="#C5C5C5" stroke-width="2" stroke-miterlimit="10" x1="3912.6" y1="872.3" x2="4206.6" y2="872.3"/><circle fill="#999999" cx="3932.6" cy="891.6" r="3"/><circle fill="#999999" cx="3944.8" cy="891.6" r="3"/><circle fill="#999999" cx="3957" cy="891.6" r="3"/><circle fill="#999999" cx="3969.2" cy="891.6" r="3"/><circle fill="#999999" cx="3981.4" cy="891.6" r="3"/><circle fill="#999999" cx="3993.7" cy="891.6" r="3"/><circle fill="#999999" cx="4005.9" cy="891.6" r="3"/><circle fill="#999999" cx="4018.1" cy="891.6" r="3"/><circle fill="#999999" cx="4030.3" cy="891.6" r="3"/><circle fill="#999999" cx="4042.6" cy="891.6" r="3"/><text transform="matrix(1 0 0 1 3928.01 860.5981)" fill="#999999" font-family="'Helvetica'" font-size="21">Email</text></g><g id="logo_4_"><circle fill="#999999" cx="4059.3" cy="713.3" r="66.3"/><text transform="matrix(1 0 0 1 4026.2952 746.0346)" fill="#FFFFFF" font-family="'CherrySwash-Regular'" font-size="84">F</text></g><g id="checkbox_1_"><path id="fields_bg_50_" opacity="0.26" fill="none" stroke="#828282" stroke-width="2" stroke-miterlimit="10" d="M3941.7 1074.4h-21.4c-4.4 0-8-3.6-8-8v-24c0-4.4 3.6-8 8-8h21.4c4.4 0 8 3.6 8 8v24C3949.8 1070.8 3946.2 1074.4 3941.7 1074.4z"/><text transform="matrix(1 0 0 1 3963.01 1062.598)" fill="#999999" font-family="'Helvetica'" font-size="21">I agree…Forms Rock!</text><g><path fill="#999999" d="M3941.7 1042.6c0 1.3-0.9 2.4-1.6 3.7l-0.1 0.2 -5.5 11.8c-1.4 2.5-2.6 4.5-3.6 5.9 -1 1.4-1.8 1.2-2.4 1.4 -0.6 0.2-1.4 0.1-2.4-0.2 -1-0.3-1.7-0.7-2.1-1.2 -0.7-1-0.8-1.4-1.4-2.9 -0.6-1.5-0.8-1.8-1.6-4 -0.3-1-0.1-2 0.5-3.1 0.6-1.1 1.4-1.7 2.4-2 1-0.3 1.8 0.5 2.4 2.2 0.1 0.2 0.1 0.3 0.2 0.4 0.5 1.3 0.9 3.2 1.3 3.6 0.3 0.5 0.7 0.7 1 0.6 0.1 0 0.4-0.3 0.7-0.7 0.3-0.4 1.7-2.9 2.1-3.6l5.8-10.5c0.6-1 1.1-1.7 1.6-2.3 0.5-0.6 1-0.9 1.4-1 0.3-0.1 0.6 0 0.8 0.2 0.2 0.2 0.4 0.6 0.5 1.2L3941.7 1042.6z"/></g></g><g id="button_3_"><g id="fields_bg_51_"><g><image overflow="visible" opacity="0.25" width="318" height="85" transform="matrix(1 0 0 1 3900.272 935.27)"/><path fill="#999999" d="M4198.3 1002.4h-277.9c-4.4 0-8-3.6-8-8v-43.6c0-4.4 3.6-8 8-8h277.9c4.4 0 8 3.6 8 8v43.6C4206.3 998.9 4202.7 1002.4 4198.3 1002.4z"/></g></g><text transform="matrix(1 0 0 1 4002.1753 980.1855)" fill="#FFFFFF" font-family="'Helvetica'" font-size="24">Let’s Do It!</text></g></g><g id="tablet-right"><g id="shell_3_"><path fill="#999999" d="M3587.6 1236.4h-468.2c-26.4 0-47.7-21.4-47.7-47.7V504.2c0-26.4 21.4-47.7 47.7-47.7h468.2c26.4 0 47.7 21.4 47.7 47.7v684.5C3635.3 1215 3614 1236.4 3587.6 1236.4z"/><path fill="#FFFFFF" d="M3591.5 1128.5h-475.7c-7.8 0-14.1-6.3-14.1-14.1V508.2c0-7.8 6.3-14.1 14.1-14.1h475.7c7.8 0 14.1 6.3 14.1 14.1v606.2C3605.7 1122.2 3599.3 1128.5 3591.5 1128.5z"/><ellipse fill="#FFFFFF" cx="3350.8" cy="1181.9" rx="30.4" ry="31.6"/></g><g id="button_2_"><g id="fields_bg_47_"><g><image overflow="visible" opacity="0.25" width="422" height="85" transform="matrix(1 0 0 1 3146.865 926.3134)"/><path fill="#999999" d="M3548.9 994.3h-381.8c-4.4 0-8-3.6-8-8v-44.8c0-4.4 3.6-8 8-8h381.8c4.4 0 8 3.6 8 8v44.8C3556.9 990.7 3553.3 994.3 3548.9 994.3z"/></g></g><text transform="matrix(0.9625 0 0 1 3297.5916 971.5849)" fill="#FFFFFF" font-family="'Helvetica'" font-size="24.49">Let’s Do It!</text></g><g id="logo_3_"><ellipse fill="#999999" cx="3349.8" cy="648.2" rx="65.1" ry="67.6"/><text transform="matrix(0.9625 0 0 1 3317.3982 681.6591)" fill="#FFFFFF" font-family="'CherrySwash-Regular'" font-size="85.71">F</text></g><g id="fields_2_"><path id="fields_bg_49_" opacity="0.26" fill="#FFFFFF" stroke="#828282" stroke-width="2" stroke-miterlimit="10" d="M3549.1 897.8h-390.8c-4.4 0-8-3.6-8-8v-80.5c0-4.4 3.6-8 8-8h390.8c4.4 0 8 3.6 8 8v80.5C3557.1 894.2 3553.5 897.8 3549.1 897.8z"/><line opacity="0.26" fill="none" stroke="#C5C5C5" stroke-width="2" stroke-miterlimit="10" x1="3151.6" y1="849.3" x2="3557.6" y2="849.3"/><g><ellipse fill="#999999" cx="3183.1" cy="873" rx="3" ry="3.1"/><ellipse fill="#999999" cx="3195.1" cy="873" rx="3" ry="3.1"/><ellipse fill="#999999" cx="3207.1" cy="873" rx="3" ry="3.1"/><ellipse fill="#999999" cx="3219.1" cy="873" rx="3" ry="3.1"/><ellipse fill="#999999" cx="3231.1" cy="873" rx="3" ry="3.1"/><ellipse fill="#999999" cx="3243.1" cy="873" rx="3" ry="3.1"/><ellipse fill="#999999" cx="3255.1" cy="873" rx="3" ry="3.1"/><ellipse fill="#999999" cx="3267.1" cy="873" rx="3" ry="3.1"/></g><text transform="matrix(0.9625 0 0 1 3179.0769 835.9755)" fill="#999999" font-family="'Helvetica'" font-size="21.43">Email</text></g></g><g id="mobile-left"><g id="shell"><path fill="#999999" d="M631.3 1229.7H352.8c-26.4 0-47.7-21.4-47.7-47.7V513c0-26.4 21.4-47.7 47.7-47.7h278.5c26.4 0 47.7 21.4 47.7 47.7V1182C679 1208.3 657.6 1229.7 631.3 1229.7z"/><rect x="327" y="564.5" fill="#FFFFFF" width="330" height="559.5"/><circle fill="#FFFFFF" cx="492.3" cy="1176.3" r="31"/><path fill="#FFFFFF" d="M521 528.9h-57.9c-3.4 0-6.2-2.8-6.2-6.2l0 0c0-3.4 2.8-6.2 6.2-6.2H521c3.4 0 6.2 2.8 6.2 6.2l0 0C527.1 526.2 524.4 528.9 521 528.9z"/><circle fill="#FFFFFF" cx="440.6" cy="522.6" r="6.2"/><g id="battery"><rect x="630.3" y="572.3" fill="none" stroke="#CCCCCC" stroke-miterlimit="10" width="20" height="8"/><rect x="631.5" y="573.5" fill="#CCCCCC" width="6.1" height="5.6"/><path fill="#CCCCCC" d="M652.5 579.4h-0.4c-0.2 0-0.3-0.1-0.3-0.3v-5.2c0-0.2 0.1-0.3 0.3-0.3h0.4c0.2 0 0.3 0.1 0.3 0.3v5.2C652.8 579.2 652.7 579.4 652.5 579.4z"/></g><g id="signal_1_"><circle fill="#CCCCCC" cx="336.6" cy="573.6" r="2.1"/><circle fill="#CCCCCC" cx="343.6" cy="573.6" r="2.1"/><circle fill="#CCCCCC" cx="350.6" cy="573.6" r="2.1"/><circle fill="#CCCCCC" cx="357.6" cy="573.6" r="2.1"/><circle fill="#CCCCCC" cx="364.6" cy="573.6" r="2.1"/></g></g><g id="fields"><path id="fields_bg_46_" opacity="0.26" fill="#FFFFFF" stroke="#828282" stroke-width="2" stroke-miterlimit="10" d="M631.2 910.9H353.4c-4.4 0-8-3.6-8-8v-62.1c0-4.4 3.6-8 8-8h277.8c4.4 0 8 3.6 8 8v62.1C639.2 907.4 635.6 910.9 631.2 910.9z"/><line opacity="0.26" fill="none" stroke="#C5C5C5" stroke-width="2" stroke-miterlimit="10" x1="345.6" y1="872.3" x2="639.6" y2="872.3"/><circle fill="#999999" cx="365.6" cy="891.6" r="3"/><circle fill="#999999" cx="377.8" cy="891.6" r="3"/><circle fill="#999999" cx="390" cy="891.6" r="3"/><circle fill="#999999" cx="402.2" cy="891.6" r="3"/><circle fill="#999999" cx="414.4" cy="891.6" r="3"/><circle fill="#999999" cx="426.7" cy="891.6" r="3"/><circle fill="#999999" cx="438.9" cy="891.6" r="3"/><circle fill="#999999" cx="451.1" cy="891.6" r="3"/><circle fill="#999999" cx="463.3" cy="891.6" r="3"/><circle fill="#999999" cx="475.6" cy="891.6" r="3"/><text transform="matrix(1 0 0 1 361.01 860.5981)" fill="#999999" font-family="'Helvetica'" font-size="21">Email</text></g><g id="logo"><circle fill="#999999" cx="492.3" cy="713.3" r="66.3"/><text transform="matrix(1 0 0 1 459.2952 746.0346)" fill="#FFFFFF" font-family="'CherrySwash-Regular'" font-size="84">F</text></g><g id="checkbox"><path id="fields_bg_43_" opacity="0.26" fill="none" stroke="#828282" stroke-width="2" stroke-miterlimit="10" d="M374.7 1074.4h-21.4c-4.4 0-8-3.6-8-8v-24c0-4.4 3.6-8 8-8h21.4c4.4 0 8 3.6 8 8v24C382.8 1070.8 379.2 1074.4 374.7 1074.4z"/><text transform="matrix(1 0 0 1 396.01 1062.598)" fill="#999999" font-family="'Helvetica'" font-size="21">I agree…Forms Rock!</text><g><path fill="#999999" d="M374.7 1042.6c0 1.3-0.9 2.4-1.6 3.7l-0.1 0.2 -5.5 11.8c-1.4 2.5-2.6 4.5-3.6 5.9 -1 1.4-1.8 1.2-2.4 1.4 -0.6 0.2-1.4 0.1-2.4-0.2 -1-0.3-1.7-0.7-2.1-1.2 -0.7-1-0.8-1.4-1.4-2.9 -0.6-1.5-0.8-1.8-1.6-4 -0.3-1-0.1-2 0.5-3.1 0.6-1.1 1.4-1.7 2.4-2 1-0.3 1.8 0.5 2.4 2.2 0.1 0.2 0.1 0.3 0.2 0.4 0.5 1.3 0.9 3.2 1.3 3.6 0.3 0.5 0.7 0.7 1 0.6 0.1 0 0.4-0.3 0.7-0.7 0.3-0.4 1.7-2.9 2.1-3.6l5.8-10.5c0.6-1 1.1-1.7 1.6-2.3 0.5-0.6 1-0.9 1.4-1 0.3-0.1 0.6 0 0.8 0.2 0.2 0.2 0.4 0.6 0.5 1.2L374.7 1042.6z"/></g></g><g id="button"><g id="fields_bg_44_"><g><image overflow="visible" opacity="0.25" width="318" height="85" transform="matrix(1 0 0 1 333.272 935.27)"/><path fill="#999999" d="M631.3 1002.4H353.4c-4.4 0-8-3.6-8-8v-43.6c0-4.4 3.6-8 8-8h277.9c4.4 0 8 3.6 8 8v43.6C639.3 998.9 635.7 1002.4 631.3 1002.4z"/></g></g><text transform="matrix(1 0 0 1 435.1752 980.1855)" fill="#FFFFFF" font-family="'Helvetica'" font-size="24">Let’s Do It!</text></g></g><g id="tablet-left"><g id="shell_1_"><path fill="#999999" d="M1423.6 1236.4H955.4c-26.4 0-47.7-21.4-47.7-47.7V504.2c0-26.4 21.4-47.7 47.7-47.7h468.2c26.4 0 47.7 21.4 47.7 47.7v684.5C1471.3 1215 1450 1236.4 1423.6 1236.4z"/><path fill="#FFFFFF" d="M1427.5 1128.5H951.9c-7.8 0-14.1-6.3-14.1-14.1V508.2c0-7.8 6.3-14.1 14.1-14.1h475.7c7.8 0 14.1 6.3 14.1 14.1v606.2C1441.7 1122.2 1435.3 1128.5 1427.5 1128.5z"/><ellipse fill="#FFFFFF" cx="1186.8" cy="1181.9" rx="30.4" ry="31.6"/></g><g id="fields_1_"><path id="fields_bg_42_" opacity="0.26" fill="#FFFFFF" stroke="#828282" stroke-width="2" stroke-miterlimit="10" d="M1385.1 897.8H994.3c-4.4 0-8-3.6-8-8v-80.5c0-4.4 3.6-8 8-8h390.8c4.4 0 8 3.6 8 8v80.5C1393.1 894.2 1389.5 897.8 1385.1 897.8z"/><line opacity="0.26" fill="none" stroke="#C5C5C5" stroke-width="2" stroke-miterlimit="10" x1="987.6" y1="849.3" x2="1393.6" y2="849.3"/><g><ellipse fill="#999999" cx="1019.1" cy="873" rx="3" ry="3.1"/><ellipse fill="#999999" cx="1031.1" cy="873" rx="3" ry="3.1"/><ellipse fill="#999999" cx="1043.1" cy="873" rx="3" ry="3.1"/><ellipse fill="#999999" cx="1055.1" cy="873" rx="3" ry="3.1"/><ellipse fill="#999999" cx="1067.1" cy="873" rx="3" ry="3.1"/><ellipse fill="#999999" cx="1079.1" cy="873" rx="3" ry="3.1"/><ellipse fill="#999999" cx="1091.1" cy="873" rx="3" ry="3.1"/><ellipse fill="#999999" cx="1103.1" cy="873" rx="3" ry="3.1"/></g><text transform="matrix(0.9625 0 0 1 1015.077 835.9755)" fill="#999999" font-family="'Helvetica'" font-size="21.43">Email</text></g><g id="logo_1_"><ellipse fill="#999999" cx="1185.8" cy="648.2" rx="65.1" ry="67.6"/><text transform="matrix(0.9625 0 0 1 1153.3982 681.6591)" fill="#FFFFFF" font-family="'CherrySwash-Regular'" font-size="85.71">F</text></g><g id="button_1_"><g id="fields_bg_40_"><g><image overflow="visible" opacity="0.25" width="422" height="85" transform="matrix(1 0 0 1 982.8651 926.3134)"/><path fill="#999999" d="M1384.9 994.3h-381.8c-4.4 0-8-3.6-8-8v-44.8c0-4.4 3.6-8 8-8h381.8c4.4 0 8 3.6 8 8v44.8C1392.9 990.7 1389.3 994.3 1384.9 994.3z"/></g></g><text transform="matrix(0.9625 0 0 1 1133.5916 971.5849)" fill="#FFFFFF" font-family="'Helvetica'" font-size="24.49">Let’s Do It!</text></g></g><g id="desktop"><g id="shell_2_"><path fill="#999999" d="M2780.7 1182.8H1757.6c-26.4 0-47.7-21.4-47.7-47.7v-630c0-26.4 21.4-47.7 47.7-47.7h1023.2c26.4 0 47.7 21.4 47.7 47.7v630C2828.5 1161.5 2807.1 1182.8 2780.7 1182.8z"/><path fill="#FFFFFF" d="M2797.4 1080.1H1740.9V501.9c0-6.6 5.4-12 12-12h1032.4c6.6 0 12 5.4 12 12V1080.1z"/><polygon fill="#999999" points="2392.4 1253.3 2353.1 1177.3 2185.1 1177.3 2145.9 1253.3 2106.6 1253.3 2106.6 1265.3 2431.6 1265.3 2431.6 1253.3 "/></g><g id="logo_2_"><ellipse fill="#999999" cx="2268" cy="589.2" rx="65.1" ry="67.6"/><text transform="matrix(0.9625 0 0 1 2235.6018 622.6301)" fill="#FFFFFF" font-family="'CherrySwash-Regular'" font-size="85.71">F</text></g><g id="form"><path id="fields_bg_38_" opacity="0.26" fill="#FFFFFF" stroke="#828282" stroke-width="2" stroke-miterlimit="10" d="M2505.1 1009.4h-469c-4.4 0-8-3.6-8-8V690.6c0-4.4 3.6-8 8-8h469c4.4 0 8 3.6 8 8v310.8C2513.1 1005.9 2509.5 1009.4 2505.1 1009.4z"/><path id="fields_bg_39_" opacity="0.26" fill="#FFFFFF" stroke="#828282" stroke-width="2" stroke-miterlimit="10" d="M2461.1 797.2h-384c-4.4 0-8-3.6-8-8v-38.4c0-4.4 3.6-8 8-8h384c4.4 0 8 3.6 8 8v38.4C2469.1 793.6 2465.6 797.2 2461.1 797.2z"/><g id="fields_bg_36_"><g><image overflow="visible" opacity="0.25" width="207" height="86" transform="matrix(1 0 0 1 2271.272 895.27)"/><path fill="#999999" d="M2458.1 963.3h-166.5c-4.4 0-8-3.6-8-8v-44.8c0-4.4 3.6-8 8-8h166.5c4.4 0 8 3.6 8 8v44.8C2466.1 959.7 2462.5 963.3 2458.1 963.3z"/></g></g><path id="fields_bg_35_" opacity="0.26" fill="#FFFFFF" stroke="#828282" stroke-width="2" stroke-miterlimit="10" d="M2460.1 873.2h-384c-4.4 0-8-3.6-8-8v-38.4c0-4.4 3.6-8 8-8h384c4.4 0 8 3.6 8 8v38.4C2468.1 869.6 2464.6 873.2 2460.1 873.2z"/><g><ellipse fill="#999999" cx="2101.3" cy="846" rx="3" ry="3.1"/><ellipse fill="#999999" cx="2113.3" cy="846" rx="3" ry="3.1"/><ellipse fill="#999999" cx="2125.3" cy="846" rx="3" ry="3.1"/><ellipse fill="#999999" cx="2137.3" cy="846" rx="3" ry="3.1"/><ellipse fill="#999999" cx="2149.3" cy="846" rx="3" ry="3.1"/><ellipse fill="#999999" cx="2161.3" cy="846" rx="3" ry="3.1"/><ellipse fill="#999999" cx="2173.3" cy="846" rx="3" ry="3.1"/><ellipse fill="#999999" cx="2185.3" cy="846" rx="3" ry="3.1"/></g><text transform="matrix(0.9163 0 0 1 2097.2805 781.6996)" fill="#999999" font-family="'Helvetica'" font-size="22.51">Email</text><text transform="matrix(0.9625 0 0 1 2319.7156 941.5558)" fill="#FFFFFF" font-family="'Helvetica'" font-size="24">Let’s Do It!</text><path id="fields_bg_34_" opacity="0.26" fill="none" stroke="#828282" stroke-width="2" stroke-miterlimit="10" d="M2097.3 951.2h-21.4c-4.4 0-8-3.6-8-8v-24c0-4.4 3.6-8 8-8h21.4c4.4 0 8 3.6 8 8v24C2105.3 947.6 2101.7 951.2 2097.3 951.2z"/><text transform="matrix(1 0 0 1 2116.8064 939.5834)" fill="#999999" font-family="'Helvetica'" font-size="24">I agree</text><g><path fill="#999999" d="M2095.5 922.2c0 1.1-0.7 1.9-1.3 3l-0.1 0.2 -4.5 9.6c-1.1 2-2.1 3.6-3 4.8 -0.9 1.2-1.5 1-2 1.1 -0.5 0.1-1.1 0.1-1.9-0.2 -0.8-0.3-1.4-0.6-1.7-1 -0.5-0.8-0.7-1.1-1.1-2.4 -0.5-1.2-0.7-1.4-1.3-3.3 -0.2-0.8-0.1-1.6 0.4-2.5 0.5-0.9 1.2-1.4 2-1.6 0.8-0.2 1.4 0.4 2 1.8 0.1 0.2 0.1 0.3 0.1 0.4 0.4 1.1 0.8 2.6 1 3 0.3 0.4 0.6 0.5 0.8 0.5 0.1 0 0.3-0.2 0.6-0.6 0.3-0.3 1.4-2.4 1.7-3l4.7-8.6c0.5-0.8 0.9-1.4 1.3-1.9 0.4-0.5 0.8-0.7 1.1-0.8 0.3-0.1 0.5 0 0.6 0.1 0.2 0.2 0.3 0.5 0.4 0.9L2095.5 922.2z"/></g></g></g></g></svg>